<svg width="168" height="155" viewBox="0 0 168 155" xmlns="http://www.w3.org/2000/svg" xmlns:xlink="http://www.w3.org/1999/xlink"><title>Page 1</title><defs><path id="a" d="M0 154.8h167.952V.08H0z"/><path d="M.157 15.704l6.93 7.522c.638.88 1.532 1.423 2.486 1.63h1.787c.954-.207 1.848-.75 2.485-1.63l4.69-5.09V.11H.157v15.594z" id="c"/><path d="M.037 19.755L2.5 22.427c1.665 2.3 5.09 2.3 6.756 0l8.738-9.483V.05H.037v19.705z" id="e"/><path d="M.037 19.022l4.058 4.404c.653.9 1.575 1.45 2.556 1.645h1.646c.98-.194 1.903-.743 2.556-1.644l7.142-7.75V.113H.037v18.908z" id="g"/><path d="M.066 12.93l.837.908c.652.902 1.575 1.45 2.555 1.645h1.646c.98-.195 1.903-.743 2.555-1.645l2.064-2.24V.165H.066V12.93z" id="i"/></defs><g fill="none" fill-rule="evenodd"><g transform="translate(0 .12)"><path d="M121.244 12.02l-9.928-10.932C110.7.41 109.67.334 108.95.9c-8.68 6.823-20.916 1.11-24.16-.617-.51-.27-1.118-.27-1.63 0C79.92 2.01 67.68 7.723 59.003.9c-.72-.566-1.75-.49-2.366.188L46.708 12.02c-.608.67-.602 1.696.017 2.355 1.747 1.858 4.877 5.71 4.657 9.24-.305 4.88-6.093 31.167-4.67 39.34 1.285 7.39 5.482 17.076 26.4 18.703 4.435.345 7.65 1.574 9.806 3.265.62.487 1.496.487 2.116 0 2.157-1.69 5.37-2.92 9.807-3.265 20.918-1.627 25.115-11.313 26.4-18.704 1.423-8.172-4.365-34.46-4.67-39.34-.22-3.53 2.91-7.38 4.657-9.24.62-.658.625-1.684.017-2.354" fill="#0EAAC8"/><path d="M83.976 4.16c-.254 0-.507.062-.74.183-1.696.884-7.992 3.577-14.504 3.577-3.275 0-6.606-.682-9.432-2.618-.313-.214-.67-.325-1.02-.325-.418 0-.825.16-1.13.496l-6.223 7.132c-.552.61-.547 1.54.016 2.14 1.586 1.686 4.233 5.298 3.63 10.788-.485 4.413-5.733 28.305-4.442 35.728 1.17 6.713 4.98 15.51 23.98 16.988 4.027.313 6.946 1.43 8.905 2.965.282.22.558.33.898.33l.063.002c.34 0 .68-.11.96-.332 1.96-1.536 4.88-2.652 8.908-2.965 18.997-1.478 22.81-10.275 23.977-16.987 1.292-7.422-3.956-31.314-4.44-35.727-.604-5.49 2.043-9.102 3.63-10.79.562-.598.567-1.53.015-2.138l-6.223-7.132c-.305-.336-.712-.496-1.13-.496-.35 0-.707.112-1.02.325-2.827 1.937-6.156 2.618-9.432 2.618-6.512 0-12.808-2.693-14.504-3.577-.233-.12-.522-.182-.776-.183h.036zm0 2.27c2.71 1.353 8.997 3.687 15.244 3.687 4.002 0 7.47-.928 10.31-2.76l5.5 6.3c-2.964 3.374-4.323 7.655-3.833 12.116.134 1.212.56 3.56 1.15 6.81 1.47 8.097 4.204 23.172 3.31 28.3-.437 2.52-1.395 6.22-4.63 9.223-3.593 3.333-9.43 5.335-17.353 5.95-3.995.312-7.254 1.365-9.698 3.132-2.444-1.768-5.703-2.82-9.697-3.13-7.924-.617-13.762-2.62-17.354-5.952-3.236-3.003-4.194-6.702-4.632-9.222-.893-5.13 1.843-20.204 3.312-28.303.59-3.248 1.016-5.596 1.15-6.807.49-4.46-.87-8.742-3.833-12.115l5.498-6.302c2.844 1.832 6.31 2.76 10.312 2.76 6.247 0 12.534-2.333 15.244-3.685z" fill="#393D40"/><path fill="#5D5D5D" d="M83.92 53.918v.933l.112-.932"/><path d="M82.73 20.56h2.493v-1.247c0-.69-.56-1.25-1.247-1.25-.688 0-1.247.56-1.247 1.25v1.248zm3.33.84h-4.167v-2.087c0-1.15.934-2.086 2.083-2.086 1.15 0 2.083.936 2.083 2.086V21.4z" fill="#393D40"/><path d="M90.22 20.265c.04 0 .076.01.11.03.137.082.497.333.598.788 0 0-.7-.75-1.098-.818h.39zm-9.128 1.79h9.154c.594 0 1.075-.48 1.075-1.075 0-.594-.48-1.076-1.075-1.076H77.705c-.594 0-1.075.482-1.075 1.076 0 .594.48 1.076 1.075 1.076h3.387zM89.498 22.056h-8.406l-2.638.33v1.36h11.044" fill="#393D40"/><path d="M90.666 24.342c.063 0 .125.017.18.05.23.134.827.552.995 1.307 0 0-1.16-1.247-1.823-1.358h.65zm-13.312 1.954h15.064v-.656c0-1.047-.848-1.895-1.893-1.895H77.427c-1.045 0-1.893.848-1.893 1.895v.656H77.354zM91.594 26.296h-14.24l-1.592.14c-.537.235-1.028.737-1.028 1.247v.247H93.22v-.247c0-.7-.927-1.387-1.626-1.387" fill="#393D40"/><path d="M75.188 49.516h17.576L90.938 27.63H77.014l-1.826 21.886zm18.485.837H74.28l1.965-23.56h15.462l1.966 23.56z" fill="#393D40"/><path d="M94.157 51.96H73.795c-.615 0-1.114-.5-1.114-1.115v-.154c0-.615.5-1.114 1.115-1.114h20.362c.615 0 1.114.5 1.114 1.115v.155c0 .615-.498 1.114-1.113 1.114M92.187 56.807v-3.034c0-.087.07-.157.157-.157h.096c.685 0 1.24.556 1.24 1.24v.867c0 .686-.555 1.24-1.24 1.24h-.096c-.087 0-.157-.07-.157-.156" fill="#393D40"/><mask id="b" fill="#fff"><use xlink:href="#a"/></mask><path fill="#393D40" mask="url(#b)" d="M91.69 56.543h.498v-2.506h-.5M87.492 43.222H80.46c-.315 0-.57-.255-.57-.57v-.08c0-.315.255-.57.57-.57h7.032c.315 0 .57.255.57.57v.08c0 .315-.255.57-.57.57"/><path fill="#393D40" mask="url(#b)" d="M81.985 43.222l-1.182.303v6.05h6.346v-6.353M83.976 31.638s-4.246 6.223-1.58 9.28c.23.267.517.457.825.574-.057-.046-.112-.097-.163-.155-1.55-1.777.92-5.394.92-5.394s2.467 3.617.918 5.394c-.05.058-.106.11-.164.155.31-.117.595-.307.828-.573 2.664-3.06-1.582-9.282-1.582-9.282M91.69 58.934v-8.166H76.262v1.19h2.452l-2.452.444v6.532h13.619M92.27 60.668h-1.106c-.627-.838-3.972-1.017-3.972-1.017 3.225-.268 5.077 1.018 5.077 1.018m.605.55c.328.192 1.185.79 1.424 1.87 0 0-1.663-1.783-2.61-1.942h.928c.09 0 .18.024.257.07m-9.807 6.88c.165-.304.585-.46.905-.326.138.057.257.138.35.26.095.122.288.546.398.672.012-.042-.003-.067-.01-.092l-.61-2.232c-.04.002-.082.007-.124.007-1.303 0-2.36-1.058-2.36-2.362 0-1.305 1.057-2.362 2.36-2.362s2.36 1.058 2.36 2.363c0 .734-.335 1.39-.86 1.823.11.4.22.802.304 1.12.02.078.052.087.1.038.304-.302.57-.445.897-.058.027.032.044.026.072 0 .29-.257.55-.48.988-.123.043.035.054.01.078-.01.21-.17.45-.233.71-.153.25.077.42.24.49.5l.467 1.713H95.27v-5.74c0-2.32-3.072-4.2-5.388-4.2H79.748l-3.796.443c-1.725.69-3.27 2.112-3.27 3.756v5.74h10.433c-.15-.23-.164-.563-.048-.775"/><path d="M96.698 71.563c0-1.486-1.8-2.69-3.285-2.69h-3.83l.07.25c.16.598.114 1.18-.153 1.738-.13.274-.293.506-.487.703h7.685zM83.167 68.944c-.02-.022-.035-.047-.05-.07h-8.578c-1.485 0-3.286 1.203-3.286 2.69h14.162c-.022-.024-.045-.047-.066-.072-.722-.854-1.446-1.707-2.183-2.548" fill="#393D40" mask="url(#b)"/><path d="M86.335 64.023c0-1.305-1.056-2.362-2.36-2.362-1.302 0-2.358 1.058-2.358 2.363 0 1.304 1.056 2.362 2.36 2.362.04 0 .082-.004.123-.007l-.195-.71c-.876-.037-1.576-.758-1.576-1.645 0-.91.736-1.65 1.646-1.65.91 0 1.647.74 1.647 1.65 0 .39-.136.75-.364 1.033l.215.79c.526-.433.86-1.09.86-1.823" fill="#0EAAC8" mask="url(#b)"/><path d="M83.976 62.374c-.91 0-1.647.738-1.647 1.65 0 .886.7 1.607 1.575 1.644l-.13-.476c-.104-.38.136-.793.523-.895.39-.104.788.123.893.507l.07.252c.227-.283.364-.642.364-1.033 0-.91-.738-1.65-1.648-1.65" fill="#393D40" mask="url(#b)"/><path d="M84.49 63.674c-.117 0-.233.015-.345.045-.34.09-.636.317-.813.626-.178.31-.226.667-.133 1.005l.484 1.774c-.475.014-.92.28-1.14.687-.254.468-.18 1.125.174 1.528.706.806 1.375 1.594 2.177 2.54.346.41.803.71 1.358.892.31.1.628.153.945.153.283 0 .568-.04.845-.122.92-.27 1.593-.835 1.996-1.68.326-.686.39-1.41.188-2.153-.105-.39-.212-.778-.318-1.166-.073-.265-.146-.53-.218-.798-.123-.45-.44-.774-.89-.913-.133-.042-.267-.062-.4-.062-.18 0-.36.04-.53.115-.152-.07-.306-.104-.46-.104-.236 0-.432.076-.596.177-.138-.07-.283-.103-.434-.103-.073 0-.142.008-.208.022l-.19-.692-.217-.797c-.156-.573-.68-.973-1.278-.973m0 .598c.32 0 .613.21.7.532.168.617.424 1.545.59 2.163.012.045.028.067.05.067.014 0 .03-.01.05-.03.174-.172.335-.292.502-.292.126 0 .255.068.395.234.013.015.024.022.034.022.013 0 .024-.008.04-.02.182-.163.352-.31.56-.31.126 0 .264.052.428.185.015.013.026.017.036.017.016 0 .026-.015.042-.028.15-.12.312-.186.486-.186.073 0 .147.01.223.034.25.077.42.242.49.5.18.655.36 1.31.537 1.964.162.597.115 1.178-.152 1.737-.334.703-.887 1.15-1.625 1.367-.225.066-.45.098-.677.098-.255 0-.51-.04-.76-.123-.42-.14-.794-.363-1.088-.71-.722-.854-1.446-1.707-2.183-2.548-.2-.23-.227-.612-.1-.847.126-.23.395-.376.657-.376.086 0 .17.017.25.05.137.057.256.138.35.26.094.122.287.546.397.672.012-.042-.003-.067-.01-.092-.283-1.036-.65-2.382-.935-3.418-.105-.38.136-.793.523-.895.064-.017.128-.025.19-.025" fill="#393D40" mask="url(#b)"/><path d="M86.755 70.66c-.105 0-.2-.07-.23-.175l-.405-1.48c-.035-.126.04-.258.167-.293.127-.035.26.04.294.168l.405 1.48c.035.126-.04.257-.167.292-.02.006-.042.01-.063.01M87.617 70.425c-.105 0-.2-.07-.23-.177l-.405-1.478c-.035-.128.04-.26.167-.294.126-.035.258.04.293.168l.404 1.478c.035.128-.04.26-.167.294-.02.006-.042.01-.063.01M88.48 70.188c-.106 0-.203-.07-.23-.176l-.406-1.478c-.035-.128.04-.26.167-.294.128-.035.26.04.295.167l.404 1.48c.034.126-.04.258-.168.293-.02.005-.042.008-.063.008M75.288 39.266h-.297c-.43 0-.78-.35-.78-.78V36.96c0-.43.35-.78.78-.78h.298v3.086zM92.665 36.18h.296c.432 0 .78.35.78.78v1.525c0 .432-.348.78-.78.78h-.295V36.18z" fill="#393D40" mask="url(#b)"/><path d="M83.92 60.757h-5.824c-3.926 0-7.12-3.198-7.12-7.128V38.284c0-.54.44-.98.98-.98h2.793v.837h-2.795c-.08 0-.144.064-.144.143V53.63c0 3.468 2.82 6.29 6.286 6.29h5.824v.837zM92.34 60.27l-.305-.78c2.426-.95 3.994-3.252 3.994-5.86V38.284c0-.08-.065-.143-.144-.143H93.09v-.838h2.796c.54 0 .98.44.98.98V53.63c0 2.955-1.777 5.562-4.527 6.64M83.618 15.52l.358-3.94.358 3.94c.02.197-.127.372-.325.39-.2.018-.374-.128-.392-.326-.002-.02-.002-.045 0-.065M96.99 30.578l3.932.36-3.933.358c-.2.018-.374-.128-.392-.326-.018-.198.128-.374.326-.392.02-.002.044 0 .065 0M70.963 31.296l-3.933-.36 3.933-.357c.198-.02.373.126.39.325.02.198-.127.373-.325.39-.02.003-.044.003-.065 0M94.614 19.78l3.02-2.515-2.513 3.023c-.126.153-.353.174-.506.046-.153-.127-.174-.354-.047-.507.014-.017.03-.033.047-.046M72.833 20.29l-2.514-3.025 3.02 2.517c.152.127.173.354.046.507-.127.152-.354.173-.507.046-.018-.014-.034-.03-.047-.047M88.752 36.003l1.108.3-1.108.298c-.165.045-.334-.053-.38-.218-.043-.165.054-.335.22-.38.053-.014.11-.013.16 0M79.2 36.6l-1.108-.3 1.108-.298c.165-.044.335.054.38.22.044.164-.054.334-.22.378-.053.015-.11.014-.16 0M86.664 32.71l.995-.574-.573.996c-.086.148-.275.2-.423.114-.148-.085-.2-.275-.113-.423.03-.05.07-.087.114-.114M80.332 39.894l-.995.573.573-.996c.085-.147.274-.198.422-.113.148.085.2.274.114.423-.028.048-.068.087-.114.114M88.042 39.47l.573.997-.995-.573c-.148-.086-.2-.275-.114-.423.085-.147.274-.198.422-.113.05.028.088.07.114.114M80.866 33.132l-.573-.996.995.573c.148.085.2.274.114.422-.085.15-.274.2-.422.114-.05-.028-.088-.068-.114-.114M51.13 61.86l18.648.4-18.65.4M116.693 62.66l-18.782-.4 18.783-.4M72.34 71.443l-10.243-.3 10.242-.3M72.937 70.182l-7.914-.3 7.914-.3M75.212 66.684l-7.915-.3 7.915-.3" fill="#393D40" mask="url(#b)"/><path d="M75.212 45.306c-.3-.075-.61-.114-.933-.114-1.364 0-2.558.713-3.238 1.786-.237-.032-.478-.05-.723-.05-1.062 0-2.05.308-2.884.837-.503-.866-1.438-1.45-2.51-1.45-.614 0-1.18.19-1.65.515-.285-2.714-2.577-4.828-5.363-4.828-.546 0-1.073.082-1.57.233.004-.078.012-.154.012-.233 0-1.808-1.25-3.325-2.93-3.732M113.79 35.667c-1.605 0-2.905 1.3-2.905 2.907 0 .364.07.71.192 1.032-.547-.187-1.133-.29-1.744-.29-2.384 0-4.405 1.55-5.118 3.696-.492-.906-1.45-1.52-2.552-1.52-1.604 0-2.904 1.3-2.904 2.907 0 .058.005.115.008.174-.664-.293-1.4-.457-2.17-.457-1.416 0-2.703.545-3.665 1.436" stroke="#393D40" mask="url(#b)"/><path d="M112.236 49.737c-.365-.43-.93-.674-1.53-.606-.276.032-.527.127-.745.266-.35-1.072-1.415-1.788-2.58-1.656-1.175.132-2.058 1.085-2.148 2.223-.263-.107-.555-.152-.857-.118-.962.108-1.654.977-1.546 1.94M61.677 51.565c-.196-.528-.642-.953-1.23-1.096-.27-.066-.537-.064-.79-.008.038-1.127-.716-2.166-1.854-2.443-1.15-.28-2.307.31-2.78 1.348-.21-.19-.47-.334-.766-.406-.94-.228-1.89.35-2.118 1.29M73.326 56.24c-.31-.495-.857-.823-1.482-.823-.31 0-.6.08-.852.222-.2-.744-.877-1.29-1.683-1.29-.965 0-1.747.78-1.747 1.746 0 .045.004.09.007.134-.206-.086-.432-.134-.668-.134-.964 0-1.746.783-1.746 1.748M106.64 59.565c-.124-.57-.53-1.065-1.116-1.277-.29-.105-.592-.127-.877-.08.062-.767-.388-1.512-1.147-1.785-.907-.327-1.907.143-2.234 1.05-.015.044-.027.086-.04.13-.164-.15-.36-.273-.582-.353-.908-.327-1.908.144-2.235 1.052" stroke="#393D40" stroke-width=".8" mask="url(#b)"/><path d="M116.867 55.065c-.667-.99-1.796-1.64-3.078-1.64-2.05 0-3.713 1.665-3.713 3.718 0 .074.007.147.01.22-.804.353-1.4 1.095-1.547 1.99-.204-.08-.424-.126-.656-.126-.994 0-1.8.807-1.8 1.802 0 .696.397 1.3.976 1.6M49.122 54.865c.668-.99 1.797-1.64 3.08-1.64 2.05 0 3.71 1.665 3.71 3.718 0 .074-.006.147-.01.22.805.353 1.4 1.096 1.548 1.99.204-.08.424-.126.656-.126.994 0 1.8.807 1.8 1.802 0 .696-.397 1.3-.976 1.6" stroke="#393D40" stroke-width=".8" mask="url(#b)"/><path d="M125.364 31.81C119.8 35.28 81.522 59.696 84.26 97.122c.024.337.18.65.434.87 4.125 3.584 39.846 32.525 82.622.004.296-.225.474-.57.5-.942 2.694-37.757-35.587-61.76-41.104-65.24-.412-.26-.934-.262-1.348-.004" fill="#F7584B" mask="url(#b)"/><path d="M126.182 36.576s-39.63 24.342-36.93 58.752c0 0 34.058 29.4 73.605-.253 2.235-34.41-36.675-58.5-36.675-58.5z" stroke="#393D40" stroke-width="2.2" stroke-linejoin="round" mask="url(#b)"/><path fill="#393D40" mask="url(#b)" d="M123.986 71.978l1.61 1.332.203-.17V66.41l-4.48 6.028 1.057.874"/><path fill="#393D40" mask="url(#b)" d="M125.595 74.174l-1.61-1.332-1.608 1.332-1.453-1.203-15.282 20.578h15.417l-5.074-3.874 9.813-13.11v-2.56M145.956 93.548L130.822 73.17l-.398-.328-1.61 1.332-1.61-1.332-1.405 1.163v2.56l9.812 13.11-5.073 3.873"/><path fill="#393D40" mask="url(#b)" d="M125.8 76.565l3.774 13.526-3.775-13.526M127.204 71.978l1.61 1.332 1.308-1.082-4.323-5.82v6.733M146.078 86.98l-22.093-29.575-2.39 1.806 22.086 29.567M119.08 53.216c-.063-.058-.16.014-.123.092l.603 1.244.542-.407-1.022-.93zM120.234 54.258l-.603.452 1.71 4.067 2.3-1.736M150.516 92.912l-1.41-1.846-2.4 1.795 1.412 1.85c.303.404.88.487 1.285.184l.928-.696c.405-.303.488-.88.186-1.286M146.37 92.37l2.4-1.796-1.455-1.943-.368.276-2.024 1.53M144.604 90.007l2.4-1.795-.57-.762-2.39 1.806"/><path fill="#393D40" mask="url(#b)" d="M123.963 62.39l1.31 1.768-1.66-1.3-18.02 24.12 2.4 1.8 19.715-26.394-.51-.682.695.433 2.185-2.924-2.39-1.805M132.592 53.216l-1.022.93.543.406.602-1.244c.037-.078-.06-.15-.123-.092M131.438 54.258l-3.405 2.783 2.298 1.737 1.71-4.067M101.156 92.912c-.302.405-.22.983.186 1.286l.927.696c.403.303.982.22 1.284-.185l1.413-1.85-2.4-1.794-1.41 1.846zM104.357 88.63l-1.453 1.944 2.4 1.795 1.445-1.935-2.022-1.527M104.67 88.212l2.398 1.795.562-.75-2.392-1.807M125.8 77.802l4.394 15.746h.346l.32-.09-5.06-18.13-5.062 18.13.32.09h.346"/><path fill="#393D40" mask="url(#b)" d="M125.8 75.732l-4.74 16.984h.58l1.063-3.655-.53 3.656h8.366M89.374 88.997l12.598.3-12.598.3M162.75 89.596l-13.048-.3 13.048-.3M89.15 92.07l7.778.3-7.777.3M162.95 92.67l-7.777-.3 7.777-.3M99.165 101.045l24.395.4-24.395.4M159.665 97.272l-17.445-.4 17.445-.4M102.755 94.965l-5.69-.3 5.69-.3"/><path fill="#393D40" mask="url(#b)" d="M102.755 94.43l-4.09-.3 4.09-.3M148.724 94.965l-5.69-.3 5.69-.3"/><path fill="#393D40" mask="url(#b)" d="M148.724 94.43l-4.09-.3 4.09-.3M155.352 100.49l-17.222-.4 17.222-.4M105.405 104.147l9.38.4-9.38.4M91.54 89.296l.3-1.846.3 1.846M98.89 89.296l.3-1.846.3 1.846M95.182 89.296l.3-1.846.3 1.846M92.938 89.296l.3-1.247.298 1.246M95.88 89.296l.3-1.247.3 1.246M99.61 89.296l.3-1.247.3 1.246M96.766 89.296l.3-1.447.3 1.446M93.636 89.296l.3-2.183.3 2.183M105.303 101.445l.4-2.846.398 2.845M106.7 101.445l.4-2.246.398 2.245M107.598 101.445l.4-3.182.398 3.182M152.29 89.296l.3-1.846.3 1.846M159.64 89.296l.3-1.846.298 1.846M155.932 89.296l.3-1.846.3 1.846M153.687 89.296l.3-1.247.3 1.246M156.63 89.296l.3-1.247.3 1.246M160.36 89.296l.3-1.247.3 1.246M157.516 89.296l.3-1.447.298 1.446M154.386 89.296l.3-2.183.298 2.183M133.192 99.847l.4-2.65.398 2.65M130.15 99.847l.398-1.855.4 1.855"/><path fill="#393D40" mask="url(#b)" d="M133.89 99.847l.4-1.855.398 1.855M134.975 99.847l.4-2.12.398 2.12M131.645 99.847l.4-3.096.4 3.097"/><path stroke="#393D40" stroke-width=".6" stroke-linejoin="round" mask="url(#b)" d="M142.973 63.59l-1.176.98 1.176.908M144.902 65.478l1.176-.98-1.176-.91M144.52 63.385l-.605-.726-.56.725M143.356 65.68l.604.727.56-.726M100.742 68.914l-1.176.982 1.176.907M102.67 70.803l1.177-.98-1.176-.91M102.288 68.71l-.604-.725-.56.726M101.125 71.007l.604.726.558-.726M115.094 62.158l-.765.637.764.59M116.348 63.385l.764-.637-.764-.59M116.1 62.026l-.394-.473-.364.473M115.342 63.518l.393.472.364-.472M108.378 52.58l-.765.64.765.59M109.63 53.81l.766-.64-.765-.59M109.383 52.45l-.393-.473-.364.472M108.626 53.94l.393.474.363-.473M136.747 49.654l-.764.638.764.59M138 50.882l.766-.638-.765-.59M137.752 49.522l-.393-.472-.364.472M136.996 51.014l.393.473.362-.473"/><path d="M89.374 85.675h12.948l-5.696-10.198c-.2-.358-.71-.37-.927-.02l-6.326 10.218zM152.19 85.675h10.452l-4.598-8.233c-.162-.29-.574-.298-.748-.016l-5.106 8.25z" fill="#393D40" mask="url(#b)"/><path d="M106.595 72.548c-.257-.46-.915-.476-1.193-.027l-8.14 13.155h8.7l4.537-6.138-3.905-6.99zM142.714 81.58l1.116-2.005-2.29-4.098c-.2-.358-.71-.37-.926-.02l-1.125 1.817 1.687 2.263 1.537 2.043z" fill="#393D40" mask="url(#b)"/><path d="M157.102 85.675l-7.332-14.6c-.258-.514-.915-.53-1.193-.03l-4.747 8.53-1.116 2.005 3.082 4.095h11.306zM126.62 46.84c0-1.66.972-3.092 2.38-3.758-.54-.255-1.14-.398-1.775-.398-2.293 0-4.152 1.86-4.152 4.157 0 2.297 1.86 4.158 4.152 4.158.635 0 1.236-.143 1.774-.398-1.408-.666-2.38-2.1-2.38-3.76" fill="#393D40" mask="url(#b)"/><path fill="#F7584B" mask="url(#b)" d="M99.92 81.377l-.985 1.592.65-2.84M143.83 79.575l-.715 1.285.383-2.066M154.992 81.137l-1.746 2.786 1.295-3.682"/><path d="M1.226 68.414L38.368 28.37c2.573-3.555 7.866-3.555 10.44 0l37.14 40.044c1.636 2.258 1.636 5.313 0 7.572l-37.14 40.54c-2.574 3.555-7.867 3.555-10.44 0L1.226 75.985c-1.635-2.26-1.635-5.314 0-7.572" fill="#D9374A" mask="url(#b)"/></g><g transform="translate(33.12 91.003)"><mask id="d" fill="#fff"><use xlink:href="#c"/></mask><path d="M3.955 23.366S-1.07 20.308.44 13.594c0 0 .565-2.423 1.822-4.48 1.257-2.057.835-4.124.835-4.124s2.37 1.724 1.693 6.08c0 0 .663-3.06 4.053-4.792 1.67-.852 3.324-4.036 2.845-6.17 0 0 8.273 5.522 3.703 14.483 0 0 2.213-.782 3.096-3.16 0 0 1.357 13.526-10.256 13.426l-4.275-1.49z" fill="#D9374A" mask="url(#d)"/></g><g transform="translate(37.71 91.802)"><mask id="f" fill="#fff"><use xlink:href="#e"/></mask><path d="M5.33 24.346s-5.51-2.06-5.287-8.938c0 0 .1-2.486.95-4.743.85-2.256.047-4.207.047-4.207s2.65 1.247 2.803 5.654c0 0 .076-3.132 3.08-5.47 1.482-1.15 2.51-4.588 1.64-6.593 0 0 9.16 3.866 6.353 13.527 0 0 2.025-1.185 2.447-3.687 0 0 3.87 13.03-7.556 15.116l-4.478-.66z" fill="#D9374A" mask="url(#f)"/></g><g transform="translate(36.114 90.803)"><mask id="h" fill="#fff"><use xlink:href="#g"/></mask><path d="M5.33 24.41S-.18 22.35.042 15.475c0 0 .1-2.487.95-4.743.85-2.256.047-4.207.047-4.207s2.65 1.248 2.803 5.655c0 0 .076-3.132 3.08-5.47 1.482-1.15 2.51-4.59 1.64-6.594 0 0 9.16 3.867 6.353 13.53 0 0 2.025-1.187 2.447-3.688 0 0 3.87 13.03-7.556 15.115l-4.478-.66z" fill="#E9ECEC" mask="url(#h)"/></g><g transform="translate(39.306 100.39)"><mask id="j" fill="#fff"><use xlink:href="#i"/></mask><path d="M2.136 14.824s-4.744-3.3.133-8.01c0 0 .03 3.03 1.45 3.672 0 0-1.94-6.516 3.484-10.32 0 0-.715 2.64.805 5.77 1.518 3.13 3.504 7.307-1.395 9.547" fill="#D9374A" mask="url(#j)"/></g><g><path fill="#E9ECEC" d="M13.024 62.21H74.18v-1.763H13.023"/><path d="M43.41 59.714s-3.87.103-8.36 3.948l-2.07-.624 3.617-2.328 3.833-1.184 2.627-.358.352.546z" fill="#D9374A"/><path d="M24.16 57.382c-.16.978-.968 4.742-4.048 5.845V89.93l2.066 1.92V64.468s2.95-.88 4.19-7.237c.047-.233-.156-.442-.39-.4l-1.545.276c-.14.025-.25.135-.273.276" fill="#E9ECEC"/><path d="M22.178 64.467s-4.028.418-4.527-6.473l1.464-1.698s.225 7.19 4.39 7.26" fill="#E9ECEC"/><path d="M21.82 62.21s-.694.66-1.36.91c0 0 .582-.41.583-.91h.776z" fill="#D9374A"/><path fill="#D9374A" d="M21.78 62.21l-3.327.354.268-.355"/><path d="M20.46 63.12s1.782-.564 3.018-3.375h-.698s-.498 1.874-2.32 3.376M20.24 60.447h-2.406v-.056l2.407-.244M21.483 64.413s.858.016 1.356-.3l-.662.523-.695-.223z" fill="#D9374A"/><path d="M21.483 67.88l1.735-1.705c.017-.016.038-.025.06-.025h.41c.074 0 .114.085.07.142l-2.275 2.854V67.88z" fill="#E9ECEC"/><path fill="#D9374A" d="M22.36 68.045l-.877 1.1.878-.602M22.27 67.108l-.348.342.35-.63"/><path d="M20.577 76.67l-2.524-2.3c-.024-.02-.054-.032-.085-.032h-.68c-.107 0-.165.124-.097.206l3.27 3.924.117-1.798zM80.634 77.67l-56.665-.3 56.664-.3" fill="#E9ECEC"/><path fill="#D9374A" d="M64.02 78.38h3.527v-2.09H64.02M19.555 77.38l1.357 1.635-1.357-.754M19.954 76.102l.623.568-.623-1.198"/><path d="M68.787 57.382c-.16.978-.968 4.742-4.048 5.845v30.32l2.065-1.696V64.468s2.95-.88 4.19-7.237c.047-.233-.156-.442-.39-.4l-1.544.276c-.14.025-.25.135-.273.276" fill="#E9ECEC"/><path d="M66.805 64.467s-3.985.414-4.52-6.363c-.004-.07.02-.14.064-.192l.98-1.14c.15-.173.434-.083.455.144.166 1.746.933 6.583 4.346 6.64" fill="#E9ECEC"/><path d="M63.404 57.917s.08.15.165.378c.088.23.187.535.268.846.083.31.148.625.188.866.022.12.034.222.043.294l.01.114s-.106-.132-.217-.354c-.113-.22-.232-.527-.314-.843-.085-.315-.132-.64-.148-.885-.017-.246.002-.415.002-.415M18.7 57.917s.08.15.165.378c.09.23.188.535.27.846.082.31.147.625.187.866.02.12.033.222.043.294.008.072.01.114.01.114s-.106-.132-.216-.354c-.114-.22-.233-.527-.315-.843-.084-.315-.132-.64-.147-.885-.017-.246.002-.415.002-.415M66.447 62.21s-.694.66-1.36.91c0 0 .582-.41.583-.91h.777z" fill="#D9374A"/><path fill="#D9374A" d="M66.407 62.21l-3.327.354.268-.355"/><path d="M65.088 63.12s1.78-.564 3.017-3.375h-.697s-.5 1.874-2.32 3.376M64.868 60.447H62.46v-.056l2.408-.244M66.11 64.413s.858.016 1.356-.3l-.66.523-.696-.223z" fill="#D9374A"/><path d="M65.767 67.45l-1.29-1.422c-.04-.044-.107-.052-.156-.018l-.25.174c-.053.037-.067.11-.03.164l1.727 2.6v-1.5z" fill="#E9ECEC"/><path fill="#D9374A" d="M64.66 66.23l.48.53-.55-1.142M64.642 67.254l.963 1.448-1.016-.92"/><path d="M66.11 71.826l1.335-.893c.014-.01.03-.014.046-.014h.43c.072 0 .11.083.062.136l-1.872 2.088v-1.318z" fill="#E9ECEC"/><path fill="#D9374A" d="M66.984 71.242l-.498.333.415-.656M67.057 72.088l-.947 1.056.873-.528"/><path d="M65.926 84.454l2.524-2.3c.024-.02.054-.033.085-.033h.68c.107 0 .165.126.097.208l-3.27 3.923-.116-1.796z" fill="#E9ECEC"/><path fill="#D9374A" d="M66.948 85.164L65.59 86.8l1.358-.755M66.948 83.522l-.535.488.475-.948M28.093 76.22l-.663 2.16h1.26l.475-1.91M67.057 63.358s.067-.034.17-.11c.054-.037.113-.09.182-.145.064-.06.14-.127.213-.207.078-.076.15-.17.233-.262.074-.1.158-.2.233-.313.078-.11.154-.227.227-.35.078-.12.148-.247.215-.376.074-.125.136-.257.198-.387.064-.128.127-.256.18-.383.052-.126.116-.244.16-.363.046-.117.093-.227.138-.33.086-.204.15-.378.203-.498l.084-.19s-.008.075-.026.205l-.037.234c-.014.09-.028.195-.06.303-.025.11-.055.228-.09.353-.03.126-.08.254-.126.387-.047.134-.095.272-.162.406-.06.135-.122.274-.198.406-.073.134-.15.265-.234.39-.078.128-.173.242-.262.354-.086.115-.19.21-.28.305-.096.09-.188.173-.282.24-.09.072-.183.124-.262.172-.082.044-.155.08-.217.102-.06.026-.113.037-.147.047-.035.008-.053.01-.053.01M21.922 63.662s.05-.02.13-.06c.04-.02.087-.046.14-.078.054-.03.11-.07.174-.11.06-.044.126-.088.192-.143.068-.05.13-.112.2-.17.07-.062.133-.134.202-.2.063-.075.134-.142.19-.223.062-.077.13-.15.18-.232.054-.082.12-.154.166-.236.048-.08.102-.155.148-.228.042-.076.085-.146.125-.21.082-.13.138-.245.188-.322.048-.078.078-.122.078-.122s-.006.052-.022.142c-.02.09-.034.223-.088.37-.045.152-.11.326-.203.502-.042.09-.097.178-.154.267-.054.09-.123.172-.188.257-.065.086-.146.158-.217.236-.077.073-.16.14-.24.2-.162.12-.33.207-.48.265-.153.056-.285.082-.377.09-.093.01-.146.004-.146.004"/><path d="M40.8 99.088s.008-2.614-.554-3.243c-.562-.63.68 1.012 2.338 1.354 0 0-1.587 1.302-1.783 1.888" fill="#E9ECEC"/><path d="M30.027 74.824h-2.51c-.184 0-.333-.156-.322-.34.52-8.612 7.66-15.435 16.393-15.435 8.732 0 15.873 6.822 16.392 15.433.01.185-.138.34-.323.34h-2.51" stroke="#E9ECEC" stroke-width="1.2"/><path fill="#D9374A" d="M28.217 75.646l.948-.973-.583 1.236M58.986 75.572l-1.03-.9.515 1.1"/><path d="M53.492 72.22h2.756c-9.965-2.654-22.303-.51-24.976.01h3.707c4.433-.614 11.767-1.235 18.512-.01" fill="#E9ECEC"/><path d="M30.802 74.53c-1.22 2.295-1.892 4.925-1.845 7.716.14 8.46 7 15.387 15.452 15.598 8.942.223 16.26-6.968 16.26-15.87 0-2.696-.67-5.234-1.854-7.458-.23-.433-.686-.7-1.177-.7l-25.66.013c-.492 0-.947.266-1.178.7" fill="#D9374A"/><path d="M29.605 73.53c-1.22 2.296-1.892 4.926-1.845 7.717.14 8.46 7 15.388 15.45 15.598 8.944.223 16.264-6.968 16.264-15.87 0-2.696-.67-5.234-1.855-7.457-.232-.434-.687-.7-1.178-.7l-25.66.012c-.49 0-.946.267-1.177.7" fill="#E9ECEC"/><path d="M43.687 96.85s8.308-3.017 8.333-15.875c.006-3.096-.474-5.622-1.206-7.672M43.64 96.85s-8.307-3.017-8.333-15.875c-.006-3.177.5-5.753 1.264-7.83" stroke="#D9374A" stroke-width=".8"/><path fill="#D9374A" d="M45.152 59.734l7.88.713h-5.685M56.442 76.47l.073.184c.045.12.113.3.182.53.073.23.152.512.23.84.076.327.16.7.22 1.11.035.204.058.42.09.642.022.222.05.453.06.69.038.477.048.98.035 1.503-.023.52-.048 1.06-.132 1.603-.07.545-.187 1.092-.316 1.636-.078.267-.15.537-.238.8-.095.263-.173.53-.282.783-.102.255-.2.51-.324.75-.115.243-.23.483-.36.71-.126.23-.246.457-.388.666-.137.21-.264.42-.41.61-.143.192-.27.388-.414.56l-.417.498c-.28.306-.537.588-.785.815-.25.227-.458.432-.65.58-.377.3-.595.467-.595.467s.185-.205.513-.554c.168-.17.344-.403.564-.65.112-.122.217-.264.33-.412.11-.148.237-.297.356-.462.233-.333.486-.69.727-1.088.128-.193.24-.404.357-.616.057-.107.122-.212.177-.322.056-.11.11-.223.168-.336.117-.223.218-.458.32-.696.108-.236.195-.483.293-.728.102-.244.172-.502.26-.754.08-.255.147-.515.22-.773.13-.522.25-1.047.324-1.57.082-.524.14-1.043.177-1.547.026-.504.054-.994.046-1.46-.003-.464-.02-.904-.046-1.31-.056-.814-.147-1.49-.225-1.962-.04-.235-.072-.42-.098-.547l-.042-.193M28.068 73.474l-.576 1.108.9-.596M59.187 73.474l.576 1.108-.9-.596M52.02 103.62s-.75.898-1.647 1.04l1.13-1.04h.517zM40.267 101.427s-.602 1.742-.303 3.373c0 0-.697-5.46-1.214-6.54l1.517 3.167z"/><path d="M36.786 101.194s-.753 1.52-.8 1.915c0 0-.026-2.163-.494-3.068 0 0 1.097.29 1.294 1.152M51.486 97.555s.937 2.054.88 2.826c0 0 1.09-2.14 1.24-5.043 0 0-.922 1.907-2.12 2.218M49.42 70.38l-1.61-4.01c-.195-.488.04-1.042.528-1.238l2.45-.986 1.608 4.003.536 1.333-6.665 2.682-.536-1.335-1.606-4.003 2.45-.986c.488-.195 1.04.042 1.237.53l1.328 3.305" fill="#E9ECEC"/><path d="M45.73 70.83l2.445-.983c.49-.197 1.05.04 1.246.532" stroke="#D9374A" stroke-width=".5"/><path d="M52.618 68.06l-2.666 1.072c-.49.198-.728.756-.53 1.247M45.237 67.67l1.777-.714M45.594 68.56l1.777-.714M45.95 69.45l1.778-.715M45.773 69.006l1.777-.716M45.416 68.116l1.777-.715M48.79 66.24l1.78-.714M48.97 66.686l1.777-.715M49.327 67.575l1.777-.715M49.15 67.13l1.776-.715M49.42 70.38l-2.053-5.116" stroke="#D9374A" stroke-width=".5"/><path d="M52.72 51.513c-.025.242-.244.42-.486.395l-4.407-.464c-.242-.025-.42-.244-.394-.487l.463-4.412c.025-.242.244-.42.487-.394l4.406.464c.242.025.42.245.394.487l-.463 4.413zM44.76 54.208c-.006.093-.087.164-.18.158l-3.712-.246c-.093-.006-.164-.087-.157-.18l.045-.676c.006-.093.087-.163.18-.157l3.712.245c.093.007.164.087.158.18l-.045.676zM44.58 56.91c-.005.093-.086.164-.18.158l-3.71-.246c-.093-.006-.164-.087-.158-.18l.045-.675c.006-.093.087-.164.18-.158l3.712.245c.09.006.162.087.156.18l-.045.676zM44.67 55.56c-.005.092-.086.163-.18.157l-3.71-.246c-.094-.005-.165-.086-.16-.18l.046-.674c.006-.093.087-.164.18-.158l3.712.246c.093.006.163.087.157.18l-.044.675zM38.91 44.332l2.153-.314 1.1.866-1.695 2.596-2.366-2.003" fill="#E9ECEC"/><path d="M42.164 44.884l-4.062.593" stroke="#D9374A" stroke-width=".5"/><path stroke="#D9374A" stroke-width=".5" stroke-linejoin="round" d="M40.994 45.055l-.527 2.425-1.196-2.174.716-1.13z"/><path d="M37.657 67.452c-.093.327-.437.518-.763.425l-2.376-.676c-.326-.093-.518-.436-.425-.763l.676-2.378c.092-.328.436-.52.762-.427l2.376.677c.327.093.518.437.425.764l-.676 2.378z" fill="#E9ECEC"/><path fill="#D9374A" d="M35.927 65.915l-.742-.212.042-.148.742.21M36.945 65.723c-.246-.07-.503.073-.573.32-.07.245.073.5.32.572.245.07.5-.074.57-.32.07-.245-.072-.502-.317-.572m-.296 1.04c-.33-.093-.52-.436-.426-.764.093-.328.436-.52.763-.426.327.093.518.436.425.764-.093.328-.436.518-.763.425"/><path fill="#D9374A" d="M37.264 66.858l-.15-.042.32-1.115.148.043M34.87 66.176l.98-1.403.096 1.71.157.044-.123-2.208-1.267 1.81"/><path d="M36.124 49.753l-2.09.183c-.107.01-.26-.04-.342-.108l-.143-.12c-.083-.068-.237-.116-.343-.107l-.877.078c-.152.013-.266.15-.252.3l.247 2.82c.006.077.075.135.154.128l4.026-.353c.08-.007.137-.076.13-.154l-.212-2.415c-.013-.152-.148-.266-.3-.252M49.94 38.3c.066.21-.053.436-.263.5l-4.76 1.467c-.21.065-.435-.054-.5-.264l-.73-2.37c-.063-.21.056-.435.265-.5l4.76-1.466c.21-.065.436.054.5.264l.73 2.37z" fill="#E9ECEC"/><path d="M43.854 38.173l2.394-.738M46.985 37.208l2.393-.737M47.21 37.946l-.735.227-.34-1.106.736-.227zM49.322 38.91l-4.05 1.248-.228-.737 4.05-1.248z" stroke="#D9374A" stroke-width=".5" stroke-linejoin="round"/><path d="M45.228 36.74l-.113-.368c-.063-.203.23-.475.65-.604l.683-.21c.42-.13.814-.07.876.133l.114.37" stroke="#E9ECEC" stroke-width=".5" stroke-linejoin="round"/><path fill="#D9374A" d="M45.313 69.794l1.177 2.932-1.717-2.713M50.257 70.56l-3.812 1.534 5.047-1.184"/><path d="M43.588 29.18c-1.273 0-2.546.576-3.38 1.727L3.85 69.87c-1.06 1.46-1.06 3.438 0 4.9l36.36 39.46c.832 1.15 2.105 1.725 3.378 1.725 1.272 0 2.545-.576 3.378-1.726l36.36-39.46c1.058-1.462 1.058-3.44 0-4.9l-36.36-38.963c-.833-1.15-2.106-1.726-3.378-1.726m0 2.198c.64 0 1.224.298 1.6.818.054.074.112.144.174.21l36.25 38.845c.42.655.418 1.49-.004 2.143L45.353 112.74c-.06.063-.114.13-.164.2-.378.52-.96.818-1.602.818-.642 0-1.225-.298-1.6-.818-.052-.07-.107-.137-.165-.2L5.567 73.392c-.422-.652-.423-1.488-.003-2.142l36.25-38.843c.06-.067.12-.137.173-.21.376-.52.96-.82 1.6-.82" fill="#E9ECEC"/><path fill="#E9ECEC" d="M6.81 77.07l10.575.3-10.575.3M77.442 80.314l-7.848-.3 7.848-.3M25.432 96.45l8.488.4-8.488.4M27.43 98.89l5.55.398-5.55.4M64.74 93.948l-7.65-.4 7.65-.4M12.83 83.137l5.623.4-5.624.4"/><path d="M118.68 72.93c-34.704-17.443-69.406 0-69.406 0v47.242c0 8.577 4.487 16.528 11.826 20.953l22.876 13.795 22.853-13.747c7.35-4.422 11.85-12.38 11.85-20.967V72.93z" fill="#FFCD00"/><path d="M83.976 126.396l-9.156-4.686-8.397 4.298c4.168 1.236 4.133 5.74 4.133 5.74-.237-.663-.493-1.24-.76-1.743.035.103.067.205.097.307.09.32.152.637.183.943.007.063.012.127.016.19.008.118.01.234.01.347-.003.233-.024.457-.064.668-.02.106-.043.208-.072.307-.03.1-.062.194-.1.286-.038.09-.08.18-.127.262-.094.167-.205.316-.334.444-.13.127-.275.235-.438.318l15.008-7.682zM93.133 121.71l-1.92-.986c-.07-.036-.037-.142.04-.13l2.6.746 7.79-3.986c2.048-1.05 2.86-3.563 1.812-5.615-1.048-2.052-3.56-2.865-5.61-1.816l-5.92 3.03-1.43.732-6.52 3.337 9.157 4.687z" fill="#D9374A"/><path d="M69.406 133.76c.13-.13.24-.278.333-.445.046-.083.088-.17.126-.262.038-.092.07-.187.1-.286.03-.1.053-.2.072-.307.04-.21.06-.435.064-.667 0-.114-.002-.23-.01-.348-.004-.063-.01-.126-.016-.19-.03-.306-.092-.623-.183-.943-.03-.102-.062-.205-.097-.307-2-3.77-4.623-3.357-4.623-3.357-.082.04-.16.09-.232.143-.108.08-.208.173-.298.277-.06.07-.115.143-.167.222-.102.157-.186.332-.253.523-.03.083-.054.17-.076.257-.018.072-.034.146-.048.222-.016.09-.03.185-.038.28 0 .01-.003.02-.004.032-.01.105-.015.214-.016.324v.005c-.003.25.016.51.056.774.06.395.166.804.322 1.213.07.185.15.37.24.555.016.032.032.065.05.098.045.09.094.18.144.268.08.138.16.27.247.4l.07.105c.06.082.118.163.178.24l.052.066c.117.148.238.286.362.414.177.183.36.347.55.49.047.037.094.072.14.106l.133.09c.13.084.264.16.398.225.064.032.13.062.194.09.097.04.194.074.29.103.195.058.387.092.575.1.093.005.185.004.276-.004.09-.01.18-.023.268-.044.033-.008.066-.017.098-.027.097-.03.192-.068.284-.115.163-.083.31-.19.438-.32M98.453 133.66c-.06-.07-.116-.145-.167-.223-.127-.197-.228-.423-.3-.67-.028-.1-.053-.2-.072-.307-.05-.264-.07-.547-.062-.844.003-.118.01-.24.024-.362.006-.06.014-.122.023-.184.047-.347.133-.705.257-1.065-.267.503-.523 1.08-.76 1.744 0 0-.036-4.506 4.132-5.742l-8.398-4.298-9.156-4.687-13.87-7.1c-2.05-1.048-4.56-.236-5.61 1.816-1.047 2.05-.235 4.565 1.815 5.614l7.73 3.957 2.793-.79c.077-.01.11.096.04.13l-2.057 1.058.004.002 9.156 4.686-.208-1.297c-.014-.09.105-.132.15-.055l1.1 1.884 13.966 7.148c-.163-.083-.31-.19-.438-.32-.032-.03-.063-.065-.093-.1M102.48 132.74c.285-.343.544-.734.765-1.167.172-.337.31-.678.416-1.015-.104.337-.243.678-.415 1.015-.22.433-.48.824-.764 1.166" fill="#D9374A"/><path d="M103.906 128.748c-.005-.103-.015-.204-.028-.302-.03-.225-.08-.437-.148-.633-.016-.048-.034-.094-.053-.14-.113-.275-.267-.514-.46-.706-.032-.032-.065-.063-.1-.092-.103-.09-.215-.165-.338-.227 0 0-2.624-.412-4.624 3.357-.123.36-.21.718-.258 1.065-.008.062-.016.123-.022.184-.013.123-.02.244-.024.362-.008.297.012.58.062.844.02.106.044.208.072.307.072.247.172.473.3.67.05.078.107.152.167.222.03.033.06.067.093.1.13.127.275.235.438.318.057.03.115.055.173.077.06.022.12.04.18.056.017.006.034.01.05.014.077.017.154.03.232.038.007 0 .014 0 .022.002.09.008.18.01.27.005.047-.004.094-.007.14-.013.096-.01.192-.028.288-.05.144-.035.29-.083.435-.143.05-.02.098-.042.146-.065.098-.046.195-.098.29-.154.098-.057.194-.12.29-.186l.14-.105c.19-.144.373-.308.55-.49.1-.104.197-.212.29-.326.285-.343.544-.734.766-1.167.172-.337.31-.677.415-1.015.176-.562.26-1.115.253-1.625 0-.062-.003-.124-.007-.185M91.926 112.954c-.583-.23-.505-.762-.368-1.122.052-.138-.08-.275-.22-.227l-.188.064c-.038.013-.07.04-.093.075l-1.437 2.39.876-.45 1.43-.73zM96.912 97.963c-.632.89-1.646 1.286-2.584 1.007-.91-.272-1.48-1.09-1.52-2.192-.1-2.59 2.497-5.058 2.523-5.082l.392-.366-.507-.17c-.667-.22-1.89-.254-2.48-.19-.834.087-2.106.456-2.943 1.205-.16.143-.323.306-.48.465-.53.53-1.076 1.075-1.57.995-.373-.06-.757-.48-1.14-1.25-1.743-3.486-.832-9.482-.822-9.542l.098-.63-.562.3c-3.882 2.06-5.95 5.92-7 8.792-.693 1.894-1.044 3.592-1.215 4.65-1.545-2.767-4.78-3.988-4.934-4.045l-.62-.228.21.627c.01.036 1.218 3.747 1.047 9.048-.093 2.873.593 5.36 2.04 7.395 1.415 1.992 3.268 3.122 4.576 3.722l.133.06.257-.584c-.104-.046-2.566-1.187-2.647-4.514-.04-1.653-.16-4.43-.533-6.244.807.627 1.856 1.575 2.033 2.28.03.116.106.422.4.39.286-.03.306-.32.316-.46.007-.112.013-.27.02-.472.056-1.537.22-6.04 2.322-9.698.454 1.704 1.663 5.573 3.354 5.956 1.27.288 2.378-.67 3.357-1.516.393-.34.773-.667 1.118-.875-.21.55-.506 1.39-.742 2.308-.562 2.193-.49 3.71.215 4.51.51.578 1.312.758 2.39.538-.413 1.56-1.882 6.285-4.816 7.806l.266.577.808-.328.01-.005c4.328-1.92 6.764-5.63 8.046-8.405 1.383-2.996 1.746-5.504 1.76-5.61l.182-1.294-.756 1.067z" fill="#D9374A"/><path d="M90.488 87.772c-.357.226-.83.12-1.056-.238-.226-.357-.12-.83.237-1.057.356-.226.83-.12 1.055.238.226.357.12.83-.237 1.057m1.046-1.57c-.08-.125-.173-.235-.276-.332l.226-.604-.678-.355-.367.53c-.28-.06-.575-.05-.857.035l-.41-.498-.646.41.274.583c-.196.22-.33.48-.397.76l-.634.105.03.766.642.055c.043.134.102.266.18.392.08.125.174.235.277.332l-.227.603.678.355.368-.528c.28.06.574.05.856-.036l.41.498.646-.41-.274-.583c.197-.22.333-.482.398-.76l.635-.106-.033-.766-.642-.054c-.043-.135-.102-.266-.18-.392M73.49 83.262c-.794-.46-1.065-1.478-.605-2.274.46-.795 1.478-1.066 2.272-.605.794.46 1.065 1.478.605 2.274-.46.795-1.477 1.066-2.272.605m4.07.437c.16-.28.278-.57.36-.867l1.39-.17.002-1.665-1.386-.176c-.166-.6-.482-1.156-.93-1.614l.547-1.288-1.44-.834-.844 1.114c-.62-.16-1.26-.158-1.862-.004l-.84-1.116-1.442.83.542 1.29c-.215.22-.41.467-.57.746-.162.278-.28.57-.362.866l-1.388.17-.003 1.665 1.386.176c.167.6.483 1.156.93 1.614l-.545 1.288 1.438.834.845-1.115c.62.16 1.26.158 1.86.004l.842 1.115 1.44-.83-.54-1.29c.215-.22.41-.467.57-.746M88.53 77.065c-.24-.15-.314-.464-.165-.703.148-.24.463-.314.702-.165.24.148.313.463.165.703-.15.24-.463.314-.703.165m1.244.172c.052-.084.09-.173.12-.263l.426-.04.016-.51-.423-.067c-.046-.185-.137-.36-.27-.504l.18-.39-.435-.27-.27.335c-.188-.055-.384-.06-.57-.02l-.248-.35-.45.243.154.402c-.068.065-.13.14-.182.223-.052.084-.09.172-.118.262l-.428.04-.016.51.424.067c.045.186.137.36.27.504l-.18.39.434.27.27-.334c.188.055.384.06.57.018l.248.35.45-.24-.154-.402c.068-.066.13-.14.182-.223M69.5 104.64c-.287.166-.655.068-.82-.22-.168-.287-.07-.656.217-.823.287-.167.655-.07.822.22.166.286.068.655-.22.822m.87-1.202c-.06-.1-.13-.19-.208-.27l.196-.467-.522-.298-.304.404c-.218-.056-.45-.056-.673.002l-.307-.403-.52.302.198.466c-.16.166-.275.367-.335.584l-.5.064v.603l.503.062c.03.107.072.212.13.313.06.1.13.19.207.27l-.195.466.52.3.305-.404c.218.056.45.056.673-.002l.307.403.52-.3-.198-.467c.16-.166.275-.368.335-.584l.502-.066-.002-.602-.502-.06c-.03-.108-.073-.214-.13-.314" fill="#D9374A"/><path d="M85.136 68.56c-18.557 0-32.473 6.995-32.473 6.995v43.63c0 7.738 4.05 14.912 10.67 18.905l20.643 12.647 20.62-12.603c6.635-3.99 10.693-11.172 10.693-18.92v-43.66c-10.438-5.244-20.877-6.993-30.154-6.993m0 2.198c9.96 0 19.358 2.075 27.958 6.17v42.287c0 3.422-.89 6.807-2.573 9.786-1.683 2.98-4.122 5.487-7.053 7.25l-.007.004-.007.004-19.476 11.904-19.497-11.946-.007-.004-.006-.004c-2.926-1.764-5.36-4.27-7.04-7.247-1.68-2.976-2.57-6.357-2.57-9.776v-42.22c3.7-1.616 15.513-6.206 30.28-6.206" fill="#D9374A"/><path fill="#D9374A" d="M96.446 131.404l-13.068-.4 13.068-.4M101.185 132.69l-13.07-.4 13.07-.4M93.81 130.023l-13.07-.4 13.07-.4M91.126 128.453l-13.07-.4 13.07-.4M79.523 120.892l-13.07-.4 13.07-.4M86.656 123.176l-13.07-.4 13.07-.4M76.886 119.51l-13.07-.4 13.07-.398M74.202 117.94l-13.068-.4 13.068-.398M114.104 96.8l-14.433-.3 14.434-.3M114.104 100.04l-7.52-.3 7.52-.3M114.104 103.278l-11.056-.3 11.056-.3M114.104 106.517l-5.732-.3 5.732-.3M53.817 96.2l16.43.3-16.43.3M53.817 99.44l7.52.3-7.52.3M53.817 102.68l11.057.3-11.057.298M53.817 105.918l5.733.3-5.733.3M68.56 133.673l-5.867-.3 5.866-.3M68.888 131.445l-5.866-.3 5.866-.3M66.872 132.478l-5.866-.3 5.866-.3M99.74 139.81l-13.77-.4 13.77-.4M104.394 137.305l-10.497-.4 10.497-.4M96.363 142.407l-13.767-.4 13.767-.4M111.404 76.024l-.548.533c.332-.372.277-.853.276-.86-.79-1.56-2.406-2.633-4.274-2.633-2.533 0-4.604 1.97-4.775 4.46.07.644.68.96.68.96-.292 0-.93-.507-.943-.518-.224-.07-.46-.11-.707-.11-1.322 0-2.394 1.074-2.394 2.398 0 1.323 1.07 2.396 2.393 2.396h9.575c1.85 0 3.35-1.502 3.35-3.355 0-1.606-1.128-2.942-2.634-3.27M55.328 79.063l.356.346c-.215-.242-.18-.554-.18-.56.513-1.013 1.563-1.708 2.776-1.708 1.644 0 2.99 1.278 3.1 2.895-.046.418-.44.622-.44.622.188 0 .602-.33.61-.336.146-.045.3-.07.46-.07.858 0 1.554.696 1.554 1.555 0 .858-.696 1.555-1.554 1.555h-6.217c-1.2 0-2.175-.975-2.175-2.178 0-1.043.733-1.91 1.71-2.124M60.62 94.7c-.01-.022-.022-.042-.035-.063l-1.33-2.24c-.057-.097-.038-.133.075-.143.092-.01.185-.017.277-.028.098-.013.134-.085.088-.173l-.023-.04-1.05-1.805-.024-.04c-.036-.067-.023-.094.053-.11.04-.01.08-.014.12-.02.13-.02.162-.085.094-.204l-.37-.643-.39-.676c-.04-.067-.03-.09.045-.114l.024-.008c.11-.033.134-.09.078-.19l-.74-1.28c-.05-.086-.126-.085-.177 0l-.156.27-.577 1c-.064.11-.043.165.077.2.004.003.008.004.012.005.084.027.093.048.05.122l-.33.573c-.144.25-.288.497-.43.746-.066.113-.033.178.097.198.04.006.082.012.122.02.07.017.083.044.048.11l-.023.04c-.35.6-.698 1.204-1.053 1.803-.075.128-.03.223.113.22.085 0 .17.016.257.026.078.01.098.048.062.118l-.03.05-1.327 2.235c-.03.047-.05.093-.017.147.03.05.08.048.128.048h6.172c.08-.01.122-.08.09-.155M67.53 94.727l-.03-.052c-.368-.618-.735-1.235-1.1-1.853-.05-.08-.032-.11.06-.12.077-.005.154-.012.23-.022.08-.01.11-.07.073-.143l-.02-.033-.868-1.492-.02-.034c-.03-.055-.02-.078.044-.09.03-.008.064-.013.097-.018.11-.016.135-.07.078-.168-.1-.177-.204-.354-.306-.532-.11-.186-.217-.373-.325-.56-.03-.055-.024-.074.04-.094l.02-.007c.09-.028.11-.076.064-.157l-.612-1.06c-.04-.07-.105-.07-.147 0l-.128.224c-.16.275-.318.55-.477.826-.053.092-.036.137.064.167l.01.004c.068.022.076.04.04.1l-.273.475c-.12.205-.238.41-.356.616-.053.094-.026.148.08.164.036.006.07.01.104.018.06.013.068.036.04.09l-.02.033c-.29.5-.577.997-.87 1.492-.063.106-.025.184.092.183.07 0 .142.012.213.02.064.008.08.04.05.098-.007.015-.016.028-.024.042-.366.616-.73 1.232-1.098 1.848-.024.04-.04.078-.013.123.025.042.066.04.106.04h1.076c.36 0 .72 0 1.08-.002h.755c.715.002 1.43 0 2.144 0 .016 0 .033.002.05 0 .066-.006.1-.066.073-.127"/><path d="M69.582 94.78c-.004-.01-.01-.02-.016-.03-.196-.36-.39-.72-.587-1.08-.026-.047-.018-.065.032-.07l.122-.013c.044-.006.06-.04.04-.084l-.01-.02-.465-.87c-.004-.006-.008-.013-.01-.02-.017-.03-.01-.045.022-.052l.052-.01c.06-.01.073-.04.042-.097-.054-.104-.11-.207-.163-.31l-.173-.327c-.017-.032-.013-.043.02-.055.005 0 .008-.002.012-.003.048-.016.06-.044.034-.09l-.326-.62c-.022-.04-.056-.04-.078 0-.024.044-.046.088-.07.13-.084.162-.17.322-.254.483-.028.054-.02.08.034.098.002 0 .004 0 .006.002.037.012.04.023.022.058l-.146.277-.19.36c-.03.055-.014.086.043.096l.055.01c.03.01.036.022.02.054l-.01.02c-.154.29-.308.58-.464.87-.034.06-.013.106.05.105.037 0 .075.006.113.01.035.006.045.025.03.058l-.015.025c-.195.36-.39.72-.586 1.078-.013.024-.022.046-.008.072.014.025.036.023.057.023H69.54c.035-.004.054-.04.04-.074M63.466 94.663c-.008-.027-.02-.053-.03-.08l-1.124-2.778c-.048-.12-.032-.166.064-.18.078-.01.156-.02.233-.034.082-.014.113-.104.074-.213l-.02-.05c-.295-.747-.59-1.493-.887-2.24l-.02-.05c-.03-.083-.02-.117.045-.137.033-.01.067-.017.1-.025.112-.025.138-.105.08-.252l-.313-.798-.33-.84c-.034-.084-.026-.112.038-.142l.02-.01c.093-.042.115-.114.067-.234l-.623-1.59c-.043-.108-.108-.108-.15 0-.046.11-.09.222-.133.333l-.487 1.24c-.054.14-.037.206.064.25l.01.006c.072.032.08.058.044.15-.092.238-.186.475-.28.713-.12.31-.242.617-.363.926-.054.14-.026.22.083.245.035.008.07.016.105.027.06.02.07.054.04.135l-.02.05c-.296.746-.59 1.494-.89 2.237-.063.16-.024.276.096.274.073-.002.146.018.218.03.066.012.084.06.053.147-.007.022-.016.043-.024.064l-1.12 2.772c-.025.06-.042.116-.015.183.027.064.07.06.11.06h1.097c.367 0 .735 0 1.103-.002.01 0 .016 0 .023.002h.726l.022-.002c.73.003 1.46.002 2.188.002.017 0 .034.002.05 0 .07-.012.104-.1.076-.192M107.928 94.7c-.01-.022-.023-.042-.035-.063l-1.33-2.24c-.058-.097-.038-.133.074-.143.093-.01.185-.017.277-.028.098-.013.134-.085.088-.173l-.023-.04-1.05-1.805c-.01-.013-.017-.026-.024-.04-.036-.067-.024-.094.053-.11.037-.01.077-.014.116-.02.133-.02.163-.085.095-.204-.122-.214-.246-.43-.37-.643l-.39-.676c-.04-.067-.03-.09.046-.114l.025-.008c.11-.033.135-.09.08-.19l-.74-1.28c-.05-.086-.127-.085-.178 0l-.155.27-.577 1c-.064.11-.043.165.077.2.004.003.01.004.013.005.084.027.093.048.05.122l-.33.573c-.144.25-.29.497-.43.746-.066.113-.033.178.096.198.042.006.083.012.124.02.07.017.082.044.047.11l-.023.04c-.35.6-.697 1.204-1.052 1.803-.076.128-.03.223.112.22.085 0 .17.016.257.026.08.01.1.048.064.118l-.03.05-1.327 2.235c-.03.047-.05.093-.017.147.03.05.08.048.13.048h6.171c.08-.01.12-.08.088-.155M114.836 94.727c-.008-.018-.02-.035-.03-.052l-1.1-1.853c-.047-.08-.03-.11.062-.12.076-.005.153-.012.23-.022.08-.01.11-.07.072-.143-.006-.01-.012-.022-.02-.033l-.868-1.492-.02-.034c-.03-.055-.018-.078.045-.09.032-.008.064-.013.097-.018.11-.016.135-.07.08-.168l-.308-.532-.323-.56c-.032-.055-.024-.074.038-.094l.022-.007c.09-.028.11-.076.065-.157l-.61-1.06c-.043-.07-.107-.07-.15 0l-.128.224c-.16.275-.32.55-.477.826-.053.092-.036.137.063.167.004 0 .007.002.01.004.07.022.077.04.042.1l-.274.475-.356.616c-.053.094-.026.148.08.164.035.006.07.01.103.018.06.013.07.036.04.09l-.018.033c-.29.5-.578.997-.87 1.492-.064.106-.026.184.092.183.07 0 .14.012.212.02.065.008.082.04.052.098-.007.015-.016.028-.025.042-.365.616-.73 1.232-1.097 1.848-.024.04-.04.078-.014.123.025.042.066.04.106.04h1.075c.36 0 .72 0 1.08-.002h.756c.714.002 1.43 0 2.143 0 .017 0 .033.002.05 0 .066-.006.1-.066.073-.127" fill="#D9374A"/><path d="M103.376 94.754l-.024-.042-.87-1.467c-.04-.064-.026-.088.048-.095.06-.005.12-.01.18-.018.065-.008.09-.055.06-.113-.006-.01-.01-.02-.016-.028l-.69-1.182c-.004-.01-.01-.017-.014-.026-.024-.045-.015-.062.035-.073l.077-.012c.087-.013.107-.056.062-.133l-.243-.422-.255-.444c-.025-.044-.02-.06.03-.075l.017-.006c.07-.022.088-.06.05-.124-.16-.28-.32-.56-.483-.84-.034-.056-.085-.056-.118 0l-.102.177-.378.655c-.042.073-.028.108.05.132l.01.003c.054.017.06.03.032.08l-.217.376-.282.488c-.043.074-.02.117.064.13.026.004.053.008.08.014.046.01.054.028.03.07-.004.01-.01.02-.014.027-.23.394-.457.79-.69 1.18-.05.085-.02.147.074.145.056 0 .112.01.168.017.05.006.065.032.04.077l-.018.033-.87 1.464c-.02.03-.032.06-.01.097.02.033.052.03.083.03h.852c.285 0 .57.002.856 0H101.58c.566.002 1.132 0 1.698 0 .013 0 .026.002.04 0 .052-.005.08-.052.058-.1M110.773 94.663c-.008-.027-.02-.053-.03-.08-.374-.925-.75-1.852-1.123-2.778-.05-.12-.032-.166.063-.18.078-.01.156-.02.234-.034.083-.014.113-.104.074-.213-.005-.017-.012-.034-.018-.05-.296-.747-.59-1.493-.887-2.24l-.02-.05c-.03-.083-.02-.117.045-.137.033-.01.066-.017.1-.025.11-.025.137-.105.08-.252-.104-.266-.21-.532-.313-.798l-.33-.84c-.033-.084-.025-.112.04-.142l.02-.01c.092-.042.113-.114.066-.234l-.624-1.59c-.043-.108-.11-.108-.152 0l-.13.333-.488 1.24c-.054.14-.036.206.065.25l.01.006c.072.032.08.058.043.15l-.28.713c-.12.31-.242.617-.363.926-.055.14-.027.22.082.245.035.008.07.016.105.027.06.02.07.054.04.135l-.02.05c-.295.746-.59 1.494-.888 2.237-.064.16-.026.276.095.274.07-.002.143.018.215.03.067.012.084.06.053.147-.007.022-.016.043-.025.064l-1.12 2.772c-.025.06-.042.116-.015.183.026.064.068.06.11.06h1.096c.368 0 .736 0 1.103-.002.01 0 .017 0 .023.002h.727l.022-.002c.73.003 1.458.002 2.188.002.017 0 .034.002.05 0 .068-.012.103-.1.075-.192M110.344 76.63h1.47v-1.47h-1.47" fill="#D9374A"/></g></g></svg>