<svg xmlns="http://www.w3.org/2000/svg" viewBox="0 0 256 256"><circle fill="#2C2E37" cx="128" cy="128" r="128"/><linearGradient id="a" gradientUnits="userSpaceOnUse" x1="128" y1="232.784" x2="128" y2="30.167"><stop offset="0" stop-color="#F0F2F3"/><stop offset="1" stop-color="#B1BFC3"/></linearGradient><path fill="url(#a)" d="M56.59 179.226L39.125 65.716 128 30.167l88.874 35.55-17.463 113.51L128 232.783"/><linearGradient id="b" gradientUnits="userSpaceOnUse" x1="88" y1="222.784" x2="88" y2="38.783"><stop offset="0" stop-color="#F79D2A"/><stop offset="1" stop-color="#F4594E"/></linearGradient><path fill="url(#b)" d="M128 38.783v184l-64-48-16-104"/><linearGradient id="c" gradientUnits="userSpaceOnUse" x1="168" y1="222.784" x2="168" y2="38.783"><stop offset="0" stop-color="#F4594E"/><stop offset="1" stop-color="#D4374D"/></linearGradient><path fill="url(#c)" d="M128 38.783v184l64-48 16-104"/><path fill="#B1BFC3" d="M181.43 190.657L129.927 71.04l-36.24 88.765-14.766 36.168 27.38 20.534 7.947-22.015 40.69 5.947 3.687 9.375L182.1 192.21l-.67-1.553zm-60.3-15.22l11.477-31.77 13.958 35.488-25.434-3.717z"/><path fill="#D4374D" d="M129.926 71.04L128 75.757v80.664l4.606-12.75 13.958 35.485L128 176.442v20.06l26.937 3.938.65 1.653 23.257-17.443"/><path fill="#F4594E" d="M128 176.442l-6.87-1.004L128 156.42V75.758l-34.314 84.048-11.64 28.512 27.094 20.32 5.107-14.144 13.753 2.01"/><g><path fill="#53499D" d="M155.69 131.332l-29.105 28.823-13.957-35.486 29.105-28.825M209.127 185.96l-29.106 28.823-33.9-4.954 29.106-28.825"/><path fill="#616DB3" d="M175.226 181.005L146.12 209.83l-11.162-28.39 29.106-28.824"/><linearGradient id="d" gradientUnits="userSpaceOnUse" x1="94.268" y1="164.054" x2="164.064" y2="164.054"><stop offset="0" stop-color="#25262E"/><stop offset="1" stop-color="#616DB3"/></linearGradient><path fill="url(#d)" d="M164.064 152.616l-29.106 28.824-40.69-5.947 29.106-28.824"/><path fill="#53499D" d="M114.198 172.086L85.092 200.91l-33.9-4.955 29.105-28.824"/><linearGradient id="e" gradientUnits="userSpaceOnUse" x1="95.122" y1="195.955" x2="95.122" y2="23.216"><stop offset="0" stop-color="#616DB3"/><stop offset="1" stop-color="#53499D"/></linearGradient><path fill="url(#e)" d="M80.297 167.13L51.19 195.956 109.948 52.04l29.106-28.823"/><g><linearGradient id="f" gradientUnits="userSpaceOnUse" x1="155.064" y1="185.96" x2="155.064" y2="23.216"><stop offset=".25" stop-color="#F0F2F3"/><stop offset=".5" stop-color="#27C1DC"/><stop offset="1" stop-color="#616DB3"/></linearGradient><path fill="url(#f)" d="M139.053 23.217l51.506 119.618 1.864 15.943 16.704 27.182-17.36-6.537-16.54 1.583-1.59-14.215-9.573-14.173-18.685-5.73-22.005-.217-10.757 10.407 1.58 15.01L101 157.033l1.812-45.052 36.24-88.763zm-8.795 104.398l25.434 3.717-13.958-35.487-11.476 31.77"/></g></g><linearGradient id="g" gradientUnits="userSpaceOnUse" x1="144.773" y1="169.797" x2="145.773" y2="59.797"><stop offset="0" stop-color="#27C1DC"/><stop offset="1" stop-color="#53499D"/></linearGradient><path fill="url(#g)" d="M123.374 146.67l40.69 5.946 11.162 28.39 33.9 4.954-18.568-43.126c-32.16 3.862-58.667 2.147-68.383-9.8-6.637-8.16-12.91-15.346-19.362-21.052l-22.516 55.15 33.9 4.954 9.177-25.417z"/></svg>