<svg xmlns="http://www.w3.org/2000/svg" width="256" height="256" viewBox="0 0 256 256"><circle cx="128" cy="128" r="128" fill="#2c2e37"/><linearGradient id="a" gradientUnits="userSpaceOnUse" x1="-92.957" y1="513.878" x2="-92.957" y2="450.317" gradientTransform="rotate(6.012 2890.59 1864.883)"><stop offset="0" stop-color="#b1bfc3"/><stop offset="1" stop-color="#f0f2f3"/></linearGradient><path fill="url(#a)" d="M89.8 212.2l-29.9-67.1-14.6 6.5 26.1 58.6z"/><linearGradient id="b" gradientUnits="userSpaceOnUse" x1="250.649" y1="-632.444" x2="266.649" y2="-632.444" gradientTransform="rotate(-24 1907.866 260.687)"><stop offset="0" stop-color="#25262e"/><stop offset="1" stop-color="#5c5a69"/></linearGradient><path fill="url(#b)" d="M58.3 141.5L43.7 148 17.6 89.5 32.2 83z"/><linearGradient id="c" gradientUnits="userSpaceOnUse" x1="250.649" y1="-656.444" x2="266.649" y2="-656.444" gradientTransform="rotate(-24 1907.866 260.687)"><stop offset="0" stop-color="#f79d2a"/><stop offset="1" stop-color="#ffcd2e"/></linearGradient><path fill="url(#c)" d="M24.9 86.3l-4 10.5 10.5 4.1 4.1-10.6z"/><linearGradient id="d" gradientUnits="userSpaceOnUse" x1="250.649" y1="-640.444" x2="266.649" y2="-640.444" gradientTransform="rotate(-24 1907.866 260.687)"><stop offset="0" stop-color="#f79d2a"/><stop offset="1" stop-color="#ffcd2e"/></linearGradient><path fill="url(#d)" d="M31.4 100.9l-4 10.5 10.6 4.1 4-10.6z"/><linearGradient id="e" gradientUnits="userSpaceOnUse" x1="250.649" y1="-624.444" x2="266.649" y2="-624.444" gradientTransform="rotate(-24 1907.866 260.687)"><stop offset="0" stop-color="#f79d2a"/><stop offset="1" stop-color="#ffcd2e"/></linearGradient><path fill="url(#e)" d="M38 115.5l-4.1 10.6 10.6 4 4-10.5z"/><linearGradient id="f" gradientUnits="userSpaceOnUse" x1="250.649" y1="-608.444" x2="266.649" y2="-608.444" gradientTransform="rotate(-24 1907.866 260.687)"><stop offset="0" stop-color="#f79d2a"/><stop offset="1" stop-color="#ffcd2e"/></linearGradient><path fill="url(#f)" d="M44.5 130.1l-4.1 10.6 10.6 4 4-10.5z"/><linearGradient id="g" gradientUnits="userSpaceOnUse" x1="250.649" y1="-666.444" x2="266.649" y2="-666.444" gradientTransform="rotate(-24 1907.866 260.687)"><stop offset="0" stop-color="#b1bfc3"/><stop offset="1" stop-color="#f0f2f3"/></linearGradient><path fill="url(#g)" d="M32.2 83l-14.6 6.5-1.6-3.6 14.6-6.5z"/><linearGradient id="h" gradientUnits="userSpaceOnUse" x1="246.649" y1="-598.444" x2="270.649" y2="-598.444" gradientTransform="rotate(-24 1907.866 260.687)"><stop offset="0" stop-color="#b1bfc3"/><stop offset="1" stop-color="#f0f2f3"/></linearGradient><path fill="url(#h)" d="M63.6 143.5l-22 9.8-1.6-3.7 21.9-9.8z"/><path fill="#b1bfc3" d="M45.267 151.625l14.616-6.507 1.627 3.654-14.616 6.507z"/><path fill="#f0f2f3" d="M89.8 212.2l-28.3-63.4-7.3 3.2 26.4 59.2z"/><linearGradient id="i" gradientUnits="userSpaceOnUse" x1="380.073" y1="-79.844" x2="380.073" y2="-143.405" gradientTransform="rotate(-6.012 3046.957 1866.208)"><stop offset="0" stop-color="#b1bfc3"/><stop offset="1" stop-color="#f0f2f3"/></linearGradient><path fill="url(#i)" d="M184.6 210.2l26.1-58.6-14.6-6.5-29.9 67.1z"/><linearGradient id="j" gradientUnits="userSpaceOnUse" x1="3854.825" y1="765.141" x2="3870.825" y2="765.141" gradientTransform="rotate(-156 2134.146 62.557)"><stop offset="0" stop-color="#25262e"/><stop offset="1" stop-color="#5c5a69"/></linearGradient><path fill="url(#j)" d="M197.7 141.5l14.6 6.5 26.1-58.5-14.6-6.5z"/><linearGradient id="k" gradientUnits="userSpaceOnUse" x1="3854.825" y1="741.141" x2="3870.825" y2="741.141" gradientTransform="rotate(-156 2134.146 62.557)"><stop offset="0" stop-color="#f79d2a"/><stop offset="1" stop-color="#ffcd2e"/></linearGradient><path fill="url(#k)" d="M231.1 86.3l4 10.5-10.5 4.1-4.1-10.6z"/><linearGradient id="l" gradientUnits="userSpaceOnUse" x1="3854.825" y1="757.141" x2="3870.825" y2="757.141" gradientTransform="rotate(-156 2134.146 62.557)"><stop offset="0" stop-color="#f79d2a"/><stop offset="1" stop-color="#ffcd2e"/></linearGradient><path fill="url(#l)" d="M224.6 100.9l4 10.5-10.6 4.1-4-10.6z"/><linearGradient id="m" gradientUnits="userSpaceOnUse" x1="3854.825" y1="773.141" x2="3870.825" y2="773.141" gradientTransform="rotate(-156 2134.146 62.557)"><stop offset="0" stop-color="#f79d2a"/><stop offset="1" stop-color="#ffcd2e"/></linearGradient><path fill="url(#m)" d="M218 115.5l4.1 10.6-10.6 4-4-10.5z"/><linearGradient id="n" gradientUnits="userSpaceOnUse" x1="3854.825" y1="789.141" x2="3870.825" y2="789.141" gradientTransform="rotate(-156 2134.146 62.557)"><stop offset="0" stop-color="#f79d2a"/><stop offset="1" stop-color="#ffcd2e"/></linearGradient><path fill="url(#n)" d="M211.5 130.1l4.1 10.6-10.6 4-4-10.5z"/><linearGradient id="o" gradientUnits="userSpaceOnUse" x1="3854.825" y1="731.141" x2="3870.825" y2="731.141" gradientTransform="rotate(-156 2134.146 62.557)"><stop offset="0" stop-color="#b1bfc3"/><stop offset="1" stop-color="#f0f2f3"/></linearGradient><path fill="url(#o)" d="M223.8 83l14.6 6.5 1.6-3.6-14.6-6.5z"/><linearGradient id="p" gradientUnits="userSpaceOnUse" x1="3850.825" y1="799.141" x2="3874.825" y2="799.141" gradientTransform="rotate(-156 2134.146 62.557)"><stop offset="0" stop-color="#b1bfc3"/><stop offset="1" stop-color="#f0f2f3"/></linearGradient><path fill="url(#p)" d="M192.4 143.5l22 9.8 1.6-3.7-21.9-9.8z"/><path fill="#b1bfc3" d="M194.45 148.777l1.628-3.654 14.616 6.507-1.627 3.654z"/><path fill="#f0f2f3" d="M175.4 211.2l26.4-59.2-7.3-3.2-28.3 63.4z"/><linearGradient id="q" gradientUnits="userSpaceOnUse" x1="128" y1="184" x2="128" y2="40"><stop offset="0" stop-color="#6a503a"/><stop offset="1" stop-color="#927452"/></linearGradient><path d="M128 40c-39.8 0-72 32.2-72 72v56c0 8.8 32.2 16 72 16s72-7.2 72-16v-56c0-39.8-32.2-72-72-72z" fill="url(#q)"/><circle cx="64" cy="120" r="16" fill="#f79d2a"/><circle cx="192" cy="120" r="16" fill="#f79d2a"/><circle cx="192" cy="138" r="8" fill="#25262e"/><linearGradient id="r" gradientUnits="userSpaceOnUse" x1="128" y1="184" x2="128" y2="56"><stop offset="0" stop-color="#f79d2a"/><stop offset="1" stop-color="#ffcd2e"/></linearGradient><path d="M192 120c0 3.3-.3 6.6-.7 9.8C186.5 160.5 160 184 128 184c-32 0-58.5-23.5-63.3-54.2-.5-3.2-.7-6.5-.7-9.8 0-35.3 28.7-64 64-64s64 28.7 64 64z" fill="url(#r)"/><linearGradient id="s" gradientUnits="userSpaceOnUse" x1="128" y1="256" x2="128" y2="168"><stop offset="0" stop-color="#5c5a69"/><stop offset="1" stop-color="#25262e"/></linearGradient><path d="M128 256c31.5 0 60.4-11.4 82.7-30.3C198.3 192 166 168 128 168s-70.3 24-82.7 57.7C67.6 244.6 96.5 256 128 256z" fill="url(#s)"/><linearGradient id="t" gradientUnits="userSpaceOnUse" x1="112" y1="200" x2="144" y2="200"><stop offset="0" stop-color="#f79d2a"/><stop offset="1" stop-color="#ffcd2e"/></linearGradient><path fill="url(#t)" d="M112 176h32l-16 48z"/><path d="M192 138c0 13.3 10.7 24 24 24 0-13.3-10.7-24-24-24z" fill="#25262e"/><path d="M118 112c0 5.5 4.5 10 10 10s10-4.5 10-10h-20zM70.4 92H176v-8H75.1c-1.7 2.5-3.3 5.2-4.7 8z" fill="#f79d2a"/><path d="M192 139c9.4 9.4 24.6 9.4 33.9 0-9.3-9.4-24.5-9.4-33.9 0z" fill="#25262e"/><linearGradient id="u" gradientUnits="userSpaceOnUse" x1="128" y1="256" x2="128" y2="169.017"><stop offset="0" stop-color="#d8394d"/><stop offset="1" stop-color="#f4594e"/></linearGradient><path d="M141.4 169L128 218l-13.4-49c-6.7 1-13.2 2.8-19.3 5.3l22.2 81.3c3.5.3 7 .4 10.5.4s7-.2 10.5-.4l22.2-81.3c-6.2-2.5-12.6-4.3-19.3-5.3z" fill="url(#u)"/><path d="M164.5 67.5C171.8 77.8 176 90.4 176 104c0 35.3-28.7 64-64 64-13.6 0-26.2-4.2-36.5-11.5C87 173.1 106.2 184 128 184c35.3 0 64-28.7 64-64 0-21.8-10.9-41-27.5-52.5z" fill="#f79d2a"/><linearGradient id="v" gradientUnits="userSpaceOnUse" x1="128" y1="184" x2="128" y2="120"><stop offset="0" stop-color="#25262e"/><stop offset="1" stop-color="#5c5a69"/></linearGradient><path d="M128 120c-22.1 0-43.3 3.4-63.3 9.8C69.5 160.5 96 184 128 184s58.5-23.5 63.3-54.2c-20-6.4-41.2-9.8-63.3-9.8z" fill="url(#v)"/><path d="M172.5 124.8C163.9 149.9 140 168 112 168c-13.6 0-26.2-4.2-36.5-11.5C87 173.1 106.2 184 128 184c32 0 58.5-23.5 63.3-54.2-6.2-1.9-12.4-3.6-18.8-5z" fill="#25262e"/><linearGradient id="w" gradientUnits="userSpaceOnUse" x1="71.277" y1="76" x2="148" y2="76"><stop offset="0" stop-color="#d8394d"/><stop offset="1" stop-color="#f4594e"/></linearGradient><path d="M94.1 64c-9.5 5.9-17.4 14.2-22.8 24H148V64H94.1z" fill="url(#w)"/><circle cx="102" cy="106" r="6" fill="#25262e"/><circle cx="154" cy="106" r="6" fill="#25262e"/><linearGradient id="x" gradientUnits="userSpaceOnUse" x1="161.727" y1="195" x2="161.727" y2="40.109"><stop offset="0" stop-color="#6a503a"/><stop offset="1" stop-color="#927452"/></linearGradient><path d="M188 104c2.5 0 5-.2 7.5-.5C191.3 70 162.7 44 128 44c0 33.1 26.9 60 60 60z" fill="url(#x)"/><path fill="#25262e" d="M191.2 130l-3.6 5.6-.4 8.8 4.8-5.4z"/></svg>