<svg xmlns="http://www.w3.org/2000/svg" width="256" height="256" viewBox="0 0 256 256"><circle cx="128" cy="128" r="128" fill="#2c2e37"/><path fill="none" stroke="#eaeced" stroke-width="2" stroke-miterlimit="10" d="M156 64L68 46 40 66"/><linearGradient id="a" gradientUnits="userSpaceOnUse" x1="84" y1="72" x2="164" y2="72"><stop offset="0" stop-color="#f79d2a"/><stop offset="1" stop-color="#ffcd2e"/></linearGradient><path fill="url(#a)" d="M84 64h80v8l-80 8z"/><linearGradient id="b" gradientUnits="userSpaceOnUse" x1="36" y1="68" x2="60" y2="68"><stop offset="0" stop-color="#f79d2a"/><stop offset="1" stop-color="#ffcd2e"/></linearGradient><path fill="url(#b)" d="M36 64h24v8H36z"/><linearGradient id="c" gradientUnits="userSpaceOnUse" x1="84" y1="112" x2="212" y2="112"><stop offset="0" stop-color="#f0f2f3"/><stop offset="1" stop-color="#b1bfc3"/></linearGradient><path d="M196 96h-96c-8.8 0-16 7.2-16 16v16h128v-16c0-8.8-7.2-16-16-16z" fill="url(#c)"/><linearGradient id="d" gradientUnits="userSpaceOnUse" x1="84" y1="172" x2="212" y2="172"><stop offset="0" stop-color="#21abc7"/><stop offset="1" stop-color="#616db3"/></linearGradient><path d="M196 216H89c-2.8 0-5-2.3-5-5v-83h128v72c0 8.8-7.2 16-16 16z" fill="url(#d)"/><path d="M84 112v16h12V96.5c-6.9 1.8-12 8-12 15.5z" fill="#b1bfc3"/><path fill="#616db3" d="M88 128h8v88h-8z"/><linearGradient id="e" gradientUnits="userSpaceOnUse" x1="68" y1="208" x2="68" y2="80"><stop offset="0" stop-color="#f79d2a"/><stop offset="1" stop-color="#ffcd2e"/></linearGradient><path d="M56 80v128h24V80H56zm16 120h-8v-8h8v8zm0-16h-8v-8h8v8zm0-16h-8v-8h8v8zm0-16h-8v-8h8v8zm0-16h-8v-8h8v8zm0-16h-8v-8h8v8zm0-16h-8v-8h8v8zm-8-16v-8h8v8h-8z" fill="url(#e)"/><linearGradient id="f" gradientUnits="userSpaceOnUse" x1="68" y1="216" x2="68" y2="200"><stop offset="0" stop-color="#b1bfc3"/><stop offset="1" stop-color="#f0f2f3"/></linearGradient><path fill="url(#f)" d="M52 200h32v16H52z"/><path fill="#b1bfc3" d="M84 200h8v16h-8z"/><path fill="#616db3" d="M92 200h8v16h-8z"/><path fill="#f79d2a" d="M80 80h8v120h-8z"/><circle cx="102" cy="112" r="6" fill="#f45950"/><circle cx="120" cy="112" r="6" fill="#ffae1c"/><circle cx="138" cy="112" r="6" fill="#59bc69"/><path fill="#f79d2a" d="M108 80H68V56h32z"/><path fill="#616db3" d="M101.3 60H84v12h21.3z"/><linearGradient id="g" gradientUnits="userSpaceOnUse" x1="52" y1="68" x2="92" y2="68"><stop offset="0" stop-color="#f79d2a"/><stop offset="1" stop-color="#ffcd2e"/></linearGradient><path d="M92 80H56.1c-2.2 0-4.1-1.8-4.1-4.1V60.1c0-2.2 1.8-4.1 4.1-4.1H84l8 24z" fill="url(#g)"/><path fill="#f79d2a" d="M56 80h24v8H56z"/><linearGradient id="h" gradientUnits="userSpaceOnUse" x1="74.667" y1="72" x2="74.667" y2="60"><stop offset="0" stop-color="#616db3"/><stop offset="1" stop-color="#21abc7"/></linearGradient><path fill="url(#h)" d="M89.3 72l-4-12H60v12z"/><path fill="none" stroke="#21abc7" stroke-width="4" stroke-miterlimit="10" d="M108 144h72M108 152h72M108 160h72"/><linearGradient id="i" gradientUnits="userSpaceOnUse" x1="156" y1="76" x2="172" y2="76"><stop offset="0" stop-color="#5c5a69"/><stop offset="1" stop-color="#3b3c45"/></linearGradient><path fill="url(#i)" d="M156 72h16v8h-16z"/><path fill="none" stroke="#21abc7" stroke-width="4" stroke-miterlimit="10" d="M108 168h72"/><path fill="#ffcd2e" d="M152 60h16v16h-16z"/><path fill="#f79d2a" d="M168 60h8v16h-8z"/><path d="M190 200c0 2.2-1.8 4-4 4h-40c-2.2 0-4-1.8-4-4v-8c0-2.2 1.8-4 4-4h40c2.2 0 4 1.8 4 4v8z" fill="#616db3"/><g><path d="M188 196c0 2.2-1.8 4-4 4h-40c-2.2 0-4-1.8-4-4v-8c0-2.2 1.8-4 4-4h40c2.2 0 4 1.8 4 4v8z" fill="#59bc69"/></g><path fill="none" stroke="#eaeced" stroke-width="2" stroke-miterlimit="10" d="M164 80v120"/><path fill="none" stroke="#21abc7" stroke-width="4" stroke-miterlimit="10" d="M108 176h32"/><path fill="#ffcd2e" d="M60 44h8v12h-8z"/><path fill="#f79d2a" d="M68 44h8v12h-8z"/><linearGradient id="j" gradientUnits="userSpaceOnUse" x1="35.054" y1="236" x2="220.946" y2="236"><stop offset="0" stop-color="#c0d84d"/><stop offset="1" stop-color="#59bc69"/></linearGradient><path d="M35.1 216c23.3 24.6 56.3 40 92.9 40s69.6-15.4 92.9-40H35.1z" fill="url(#j)"/></svg>